<mxfile host="app.diagrams.net" agent="Mozilla/5.0 (Windows NT 10.0; Win64; x64) AppleWebKit/537.36 (KHTML, like Gecko) Chrome/133.0.0.0 Safari/537.36 OPR/118.0.0.0" version="26.3.0">
  <diagram name="Page-1" id="CQflZYAVFxsJLx8PRbMf">
    <mxGraphModel dx="4564" dy="2964" grid="1" gridSize="10" guides="1" tooltips="1" connect="1" arrows="1" fold="1" page="1" pageScale="1" pageWidth="850" pageHeight="1100" math="0" shadow="0">
      <root>
        <mxCell id="0" />
        <mxCell id="1" parent="0" />
        <mxCell id="u2MYhU1KEle7p8JZ1dJk-1" value="&lt;div&gt;&lt;span style=&quot;background-color: transparent; color: light-dark(rgb(0, 0, 0), rgb(255, 255, 255));&quot;&gt;&amp;lt;&amp;lt;Entity&amp;gt;&amp;gt;&lt;/span&gt;&lt;/div&gt;&lt;div&gt;&lt;span style=&quot;background-color: transparent; color: light-dark(rgb(0, 0, 0), rgb(255, 255, 255));&quot;&gt;Panel&lt;/span&gt;&lt;/div&gt;" style="swimlane;fontStyle=1;align=center;verticalAlign=top;childLayout=stackLayout;horizontal=1;startSize=40;horizontalStack=0;resizeParent=1;resizeParentMax=0;resizeLast=0;collapsible=1;marginBottom=0;whiteSpace=wrap;html=1;fillColor=#CCCCFF;" vertex="1" parent="1">
          <mxGeometry x="-3100" y="-1870" width="204" height="230" as="geometry" />
        </mxCell>
        <mxCell id="u2MYhU1KEle7p8JZ1dJk-2" value="+id: Integer" style="text;strokeColor=none;fillColor=none;align=left;verticalAlign=top;spacingLeft=4;spacingRight=4;overflow=hidden;rotatable=0;points=[[0,0.5],[1,0.5]];portConstraint=eastwest;whiteSpace=wrap;html=1;" vertex="1" parent="u2MYhU1KEle7p8JZ1dJk-1">
          <mxGeometry y="40" width="204" height="26" as="geometry" />
        </mxCell>
        <mxCell id="u2MYhU1KEle7p8JZ1dJk-3" value="+content: Image" style="text;strokeColor=none;fillColor=none;align=left;verticalAlign=top;spacingLeft=4;spacingRight=4;overflow=hidden;rotatable=0;points=[[0,0.5],[1,0.5]];portConstraint=eastwest;whiteSpace=wrap;html=1;" vertex="1" parent="u2MYhU1KEle7p8JZ1dJk-1">
          <mxGeometry y="66" width="204" height="26" as="geometry" />
        </mxCell>
        <mxCell id="u2MYhU1KEle7p8JZ1dJk-4" value="" style="line;strokeWidth=1;fillColor=none;align=left;verticalAlign=middle;spacingTop=-1;spacingLeft=3;spacingRight=3;rotatable=0;labelPosition=right;points=[];portConstraint=eastwest;strokeColor=inherit;" vertex="1" parent="u2MYhU1KEle7p8JZ1dJk-1">
          <mxGeometry y="92" width="204" height="8" as="geometry" />
        </mxCell>
        <mxCell id="u2MYhU1KEle7p8JZ1dJk-5" value="+Panel(): void" style="text;strokeColor=none;fillColor=none;align=left;verticalAlign=top;spacingLeft=4;spacingRight=4;overflow=hidden;rotatable=0;points=[[0,0.5],[1,0.5]];portConstraint=eastwest;whiteSpace=wrap;html=1;" vertex="1" parent="u2MYhU1KEle7p8JZ1dJk-1">
          <mxGeometry y="100" width="204" height="26" as="geometry" />
        </mxCell>
        <mxCell id="u2MYhU1KEle7p8JZ1dJk-6" value="+getId(): Integer" style="text;strokeColor=none;fillColor=none;align=left;verticalAlign=top;spacingLeft=4;spacingRight=4;overflow=hidden;rotatable=0;points=[[0,0.5],[1,0.5]];portConstraint=eastwest;whiteSpace=wrap;html=1;" vertex="1" parent="u2MYhU1KEle7p8JZ1dJk-1">
          <mxGeometry y="126" width="204" height="26" as="geometry" />
        </mxCell>
        <mxCell id="u2MYhU1KEle7p8JZ1dJk-7" value="+setId(id: Integer): void" style="text;strokeColor=none;fillColor=none;align=left;verticalAlign=top;spacingLeft=4;spacingRight=4;overflow=hidden;rotatable=0;points=[[0,0.5],[1,0.5]];portConstraint=eastwest;whiteSpace=wrap;html=1;" vertex="1" parent="u2MYhU1KEle7p8JZ1dJk-1">
          <mxGeometry y="152" width="204" height="26" as="geometry" />
        </mxCell>
        <mxCell id="u2MYhU1KEle7p8JZ1dJk-8" value="+setContent(content: Image): void" style="text;strokeColor=none;fillColor=none;align=left;verticalAlign=top;spacingLeft=4;spacingRight=4;overflow=hidden;rotatable=0;points=[[0,0.5],[1,0.5]];portConstraint=eastwest;whiteSpace=wrap;html=1;" vertex="1" parent="u2MYhU1KEle7p8JZ1dJk-1">
          <mxGeometry y="178" width="204" height="26" as="geometry" />
        </mxCell>
        <mxCell id="u2MYhU1KEle7p8JZ1dJk-9" value="+getContent(): Image" style="text;strokeColor=default;fillColor=#9AC7BF;align=left;verticalAlign=top;spacingLeft=4;spacingRight=4;overflow=hidden;rotatable=0;points=[[0,0.5],[1,0.5]];portConstraint=eastwest;whiteSpace=wrap;html=1;" vertex="1" parent="u2MYhU1KEle7p8JZ1dJk-1">
          <mxGeometry y="204" width="204" height="26" as="geometry" />
        </mxCell>
        <mxCell id="u2MYhU1KEle7p8JZ1dJk-10" value="&lt;div&gt;&lt;span style=&quot;background-color: transparent; color: light-dark(rgb(0, 0, 0), rgb(255, 255, 255));&quot;&gt;&amp;lt;&amp;lt;Entity&amp;gt;&amp;gt;&lt;/span&gt;&lt;/div&gt;&lt;div&gt;&lt;span style=&quot;background-color: transparent; color: light-dark(rgb(0, 0, 0), rgb(255, 255, 255));&quot;&gt;RealPanel&lt;/span&gt;&lt;/div&gt;" style="swimlane;fontStyle=1;align=center;verticalAlign=top;childLayout=stackLayout;horizontal=1;startSize=40;horizontalStack=0;resizeParent=1;resizeParentMax=0;resizeLast=0;collapsible=1;marginBottom=0;whiteSpace=wrap;html=1;fillColor=#CCCCFF;" vertex="1" parent="1">
          <mxGeometry x="-2896" y="-1470" width="204" height="230" as="geometry" />
        </mxCell>
        <mxCell id="u2MYhU1KEle7p8JZ1dJk-11" value="+id: Integer" style="text;strokeColor=none;fillColor=none;align=left;verticalAlign=top;spacingLeft=4;spacingRight=4;overflow=hidden;rotatable=0;points=[[0,0.5],[1,0.5]];portConstraint=eastwest;whiteSpace=wrap;html=1;" vertex="1" parent="u2MYhU1KEle7p8JZ1dJk-10">
          <mxGeometry y="40" width="204" height="26" as="geometry" />
        </mxCell>
        <mxCell id="u2MYhU1KEle7p8JZ1dJk-12" value="+content: Image" style="text;strokeColor=none;fillColor=none;align=left;verticalAlign=top;spacingLeft=4;spacingRight=4;overflow=hidden;rotatable=0;points=[[0,0.5],[1,0.5]];portConstraint=eastwest;whiteSpace=wrap;html=1;" vertex="1" parent="u2MYhU1KEle7p8JZ1dJk-10">
          <mxGeometry y="66" width="204" height="26" as="geometry" />
        </mxCell>
        <mxCell id="u2MYhU1KEle7p8JZ1dJk-13" value="" style="line;strokeWidth=1;fillColor=none;align=left;verticalAlign=middle;spacingTop=-1;spacingLeft=3;spacingRight=3;rotatable=0;labelPosition=right;points=[];portConstraint=eastwest;strokeColor=inherit;" vertex="1" parent="u2MYhU1KEle7p8JZ1dJk-10">
          <mxGeometry y="92" width="204" height="8" as="geometry" />
        </mxCell>
        <mxCell id="u2MYhU1KEle7p8JZ1dJk-14" value="+Panel(): void" style="text;strokeColor=none;fillColor=none;align=left;verticalAlign=top;spacingLeft=4;spacingRight=4;overflow=hidden;rotatable=0;points=[[0,0.5],[1,0.5]];portConstraint=eastwest;whiteSpace=wrap;html=1;" vertex="1" parent="u2MYhU1KEle7p8JZ1dJk-10">
          <mxGeometry y="100" width="204" height="26" as="geometry" />
        </mxCell>
        <mxCell id="u2MYhU1KEle7p8JZ1dJk-15" value="+getId(): Integer" style="text;strokeColor=none;fillColor=none;align=left;verticalAlign=top;spacingLeft=4;spacingRight=4;overflow=hidden;rotatable=0;points=[[0,0.5],[1,0.5]];portConstraint=eastwest;whiteSpace=wrap;html=1;" vertex="1" parent="u2MYhU1KEle7p8JZ1dJk-10">
          <mxGeometry y="126" width="204" height="26" as="geometry" />
        </mxCell>
        <mxCell id="u2MYhU1KEle7p8JZ1dJk-16" value="+setId(id: Integer): void" style="text;strokeColor=none;fillColor=none;align=left;verticalAlign=top;spacingLeft=4;spacingRight=4;overflow=hidden;rotatable=0;points=[[0,0.5],[1,0.5]];portConstraint=eastwest;whiteSpace=wrap;html=1;" vertex="1" parent="u2MYhU1KEle7p8JZ1dJk-10">
          <mxGeometry y="152" width="204" height="26" as="geometry" />
        </mxCell>
        <mxCell id="u2MYhU1KEle7p8JZ1dJk-17" value="+setContent(content: Image): void" style="text;strokeColor=none;fillColor=none;align=left;verticalAlign=top;spacingLeft=4;spacingRight=4;overflow=hidden;rotatable=0;points=[[0,0.5],[1,0.5]];portConstraint=eastwest;whiteSpace=wrap;html=1;" vertex="1" parent="u2MYhU1KEle7p8JZ1dJk-10">
          <mxGeometry y="178" width="204" height="26" as="geometry" />
        </mxCell>
        <mxCell id="u2MYhU1KEle7p8JZ1dJk-18" value="+getContent(): Image" style="text;strokeColor=default;fillColor=#9AC7BF;align=left;verticalAlign=top;spacingLeft=4;spacingRight=4;overflow=hidden;rotatable=0;points=[[0,0.5],[1,0.5]];portConstraint=eastwest;whiteSpace=wrap;html=1;" vertex="1" parent="u2MYhU1KEle7p8JZ1dJk-10">
          <mxGeometry y="204" width="204" height="26" as="geometry" />
        </mxCell>
        <mxCell id="u2MYhU1KEle7p8JZ1dJk-19" value="&lt;div&gt;&lt;span style=&quot;background-color: transparent; color: light-dark(rgb(0, 0, 0), rgb(255, 255, 255));&quot;&gt;&amp;lt;&amp;lt;Entity&amp;gt;&amp;gt;&lt;/span&gt;&lt;/div&gt;&lt;div&gt;&lt;span style=&quot;background-color: transparent; color: light-dark(rgb(0, 0, 0), rgb(255, 255, 255));&quot;&gt;ProxyPanel&lt;/span&gt;&lt;/div&gt;" style="swimlane;fontStyle=1;align=center;verticalAlign=top;childLayout=stackLayout;horizontal=1;startSize=40;horizontalStack=0;resizeParent=1;resizeParentMax=0;resizeLast=0;collapsible=1;marginBottom=0;whiteSpace=wrap;html=1;fillColor=#CCCCFF;" vertex="1" parent="1">
          <mxGeometry x="-3304" y="-1470" width="204" height="230" as="geometry" />
        </mxCell>
        <mxCell id="u2MYhU1KEle7p8JZ1dJk-20" value="+id: Integer" style="text;strokeColor=none;fillColor=none;align=left;verticalAlign=top;spacingLeft=4;spacingRight=4;overflow=hidden;rotatable=0;points=[[0,0.5],[1,0.5]];portConstraint=eastwest;whiteSpace=wrap;html=1;" vertex="1" parent="u2MYhU1KEle7p8JZ1dJk-19">
          <mxGeometry y="40" width="204" height="26" as="geometry" />
        </mxCell>
        <mxCell id="u2MYhU1KEle7p8JZ1dJk-21" value="+content: Image" style="text;strokeColor=none;fillColor=none;align=left;verticalAlign=top;spacingLeft=4;spacingRight=4;overflow=hidden;rotatable=0;points=[[0,0.5],[1,0.5]];portConstraint=eastwest;whiteSpace=wrap;html=1;" vertex="1" parent="u2MYhU1KEle7p8JZ1dJk-19">
          <mxGeometry y="66" width="204" height="26" as="geometry" />
        </mxCell>
        <mxCell id="u2MYhU1KEle7p8JZ1dJk-22" value="" style="line;strokeWidth=1;fillColor=none;align=left;verticalAlign=middle;spacingTop=-1;spacingLeft=3;spacingRight=3;rotatable=0;labelPosition=right;points=[];portConstraint=eastwest;strokeColor=inherit;" vertex="1" parent="u2MYhU1KEle7p8JZ1dJk-19">
          <mxGeometry y="92" width="204" height="8" as="geometry" />
        </mxCell>
        <mxCell id="u2MYhU1KEle7p8JZ1dJk-23" value="+Panel(): void" style="text;strokeColor=none;fillColor=none;align=left;verticalAlign=top;spacingLeft=4;spacingRight=4;overflow=hidden;rotatable=0;points=[[0,0.5],[1,0.5]];portConstraint=eastwest;whiteSpace=wrap;html=1;" vertex="1" parent="u2MYhU1KEle7p8JZ1dJk-19">
          <mxGeometry y="100" width="204" height="26" as="geometry" />
        </mxCell>
        <mxCell id="u2MYhU1KEle7p8JZ1dJk-24" value="+getId(): Integer" style="text;strokeColor=none;fillColor=none;align=left;verticalAlign=top;spacingLeft=4;spacingRight=4;overflow=hidden;rotatable=0;points=[[0,0.5],[1,0.5]];portConstraint=eastwest;whiteSpace=wrap;html=1;" vertex="1" parent="u2MYhU1KEle7p8JZ1dJk-19">
          <mxGeometry y="126" width="204" height="26" as="geometry" />
        </mxCell>
        <mxCell id="u2MYhU1KEle7p8JZ1dJk-25" value="+setId(id: Integer): void" style="text;strokeColor=none;fillColor=none;align=left;verticalAlign=top;spacingLeft=4;spacingRight=4;overflow=hidden;rotatable=0;points=[[0,0.5],[1,0.5]];portConstraint=eastwest;whiteSpace=wrap;html=1;" vertex="1" parent="u2MYhU1KEle7p8JZ1dJk-19">
          <mxGeometry y="152" width="204" height="26" as="geometry" />
        </mxCell>
        <mxCell id="u2MYhU1KEle7p8JZ1dJk-26" value="+setContent(content: Image): void" style="text;strokeColor=none;fillColor=none;align=left;verticalAlign=top;spacingLeft=4;spacingRight=4;overflow=hidden;rotatable=0;points=[[0,0.5],[1,0.5]];portConstraint=eastwest;whiteSpace=wrap;html=1;" vertex="1" parent="u2MYhU1KEle7p8JZ1dJk-19">
          <mxGeometry y="178" width="204" height="26" as="geometry" />
        </mxCell>
        <mxCell id="u2MYhU1KEle7p8JZ1dJk-27" value="+getContent(): Image" style="text;strokeColor=default;fillColor=#9AC7BF;align=left;verticalAlign=top;spacingLeft=4;spacingRight=4;overflow=hidden;rotatable=0;points=[[0,0.5],[1,0.5]];portConstraint=eastwest;whiteSpace=wrap;html=1;" vertex="1" parent="u2MYhU1KEle7p8JZ1dJk-19">
          <mxGeometry y="204" width="204" height="26" as="geometry" />
        </mxCell>
        <mxCell id="u2MYhU1KEle7p8JZ1dJk-28" value="" style="endArrow=open;endFill=1;endSize=12;html=1;rounded=0;entryX=0;entryY=0.5;entryDx=0;entryDy=0;exitX=1;exitY=0.5;exitDx=0;exitDy=0;" edge="1" parent="1" source="u2MYhU1KEle7p8JZ1dJk-23" target="u2MYhU1KEle7p8JZ1dJk-14">
          <mxGeometry width="160" relative="1" as="geometry">
            <mxPoint x="-3120" y="-1530" as="sourcePoint" />
            <mxPoint x="-2960" y="-1530" as="targetPoint" />
          </mxGeometry>
        </mxCell>
        <mxCell id="u2MYhU1KEle7p8JZ1dJk-29" value="" style="endArrow=block;endSize=16;endFill=0;html=1;rounded=0;" edge="1" parent="1">
          <mxGeometry width="160" relative="1" as="geometry">
            <mxPoint x="-3000" y="-1520" as="sourcePoint" />
            <mxPoint x="-3000" y="-1640" as="targetPoint" />
          </mxGeometry>
        </mxCell>
        <mxCell id="u2MYhU1KEle7p8JZ1dJk-30" value="" style="endArrow=none;html=1;rounded=0;" edge="1" parent="1">
          <mxGeometry width="50" height="50" relative="1" as="geometry">
            <mxPoint x="-3000" y="-1520" as="sourcePoint" />
            <mxPoint x="-2794" y="-1520" as="targetPoint" />
          </mxGeometry>
        </mxCell>
        <mxCell id="u2MYhU1KEle7p8JZ1dJk-31" value="" style="endArrow=none;html=1;rounded=0;" edge="1" parent="1">
          <mxGeometry width="50" height="50" relative="1" as="geometry">
            <mxPoint x="-2794.48" y="-1470" as="sourcePoint" />
            <mxPoint x="-2794.48" y="-1520" as="targetPoint" />
          </mxGeometry>
        </mxCell>
        <mxCell id="u2MYhU1KEle7p8JZ1dJk-32" value="" style="endArrow=none;html=1;rounded=0;" edge="1" parent="1">
          <mxGeometry width="50" height="50" relative="1" as="geometry">
            <mxPoint x="-3203" y="-1520" as="sourcePoint" />
            <mxPoint x="-3000" y="-1520" as="targetPoint" />
          </mxGeometry>
        </mxCell>
        <mxCell id="u2MYhU1KEle7p8JZ1dJk-33" value="" style="endArrow=none;html=1;rounded=0;" edge="1" parent="1">
          <mxGeometry width="50" height="50" relative="1" as="geometry">
            <mxPoint x="-3202.2" y="-1470" as="sourcePoint" />
            <mxPoint x="-3202.2" y="-1520" as="targetPoint" />
            <Array as="points">
              <mxPoint x="-3202.2" y="-1500" />
            </Array>
          </mxGeometry>
        </mxCell>
        <mxCell id="u2MYhU1KEle7p8JZ1dJk-34" value="realSubject" style="text;html=1;align=center;verticalAlign=middle;resizable=0;points=[];autosize=1;strokeColor=none;fillColor=none;" vertex="1" parent="1">
          <mxGeometry x="-3040" y="-1400" width="80" height="30" as="geometry" />
        </mxCell>
      </root>
    </mxGraphModel>
  </diagram>
</mxfile>
